Coordinates
version=1
nRows=5
nColumns=63
inDegrees=yes

Units are S.I. units (second, meters, Newtons, ...)
If the header above contains a line with 'inDegrees', this indicates whether rotational values are in degrees (yes) or radians (no).

endheader
time	pelvis_tilt	pelvis_list	pelvis_rotation	pelvis_tx	pelvis_ty	pelvis_tz	hip_flexion_r	hip_adduction_r	hip_rotation_r	knee_angle_r	knee_angle_r_beta	ankle_angle_r	subtalar_angle_r	mtp_angle_r	hip_flexion_l	hip_adduction_l	hip_rotation_l	knee_angle_l	knee_angle_l_beta	ankle_angle_l	subtalar_angle_l	mtp_angle_l	L5_S1_Flex_Ext	L5_S1_Lat_Bending	L5_S1_axial_rotation	L4_L5_Flex_Ext	L4_L5_Lat_Bending	L4_L5_axial_rotation	L3_L4_Flex_Ext	L3_L4_Lat_Bending	L3_L4_axial_rotation	L2_L3_Flex_Ext	L2_L3_Lat_Bending	L2_L3_axial_rotation	L1_L2_Flex_Ext	L1_L2_Lat_Bending	L1_L2_axial_rotation	L1_T12_Flex_Ext	L1_T12_Lat_Bending	L1_T12_axial_rotation	Abs_r3	Abs_r2	Abs_r1	Abs_t1	Abs_t2	neck_flexion	neck_bending	neck_rotation	arm_flex_r	arm_add_r	arm_rot_r	elbow_flex_r	pro_sup_r	wrist_flex_r	wrist_dev_r	arm_flex_l	arm_add_l	arm_rot_l	elbow_flex_l	pro_sup_l	wrist_flex_l	wrist_dev_l
      1.64406780	     -0.89609288	     -7.96972659	     87.75610674	      0.26486391	      1.04342450	      0.30075220	      4.76664937	     -2.61741181	    -15.52514812	      8.66483177	      0.15122984	     17.72605572	     16.48799085	      0.00000000	      4.40862738	      2.96168197	      0.97548746	      4.30313963	      0.07510395	     13.69566050	    -16.67748527	      0.00000000	      0.08753158	     -0.65731653	      0.24619208	      0.16255489	     -0.87423098	      0.26157908	      0.14380563	     -1.59819940	      0.26157908	      0.10003984	     -1.59819940	      0.21541807	      0.08128182	     -1.34039986	      0.20003106	      0.05001554	     -1.01818330	      0.18464406	      0.62522931	     -7.43569601	      1.36924647	      0.00000000	      0.00000000	     12.67260482	      8.61299653	    -16.53783486	     79.23671829	   -102.70988775	    -90.07946827	      4.72448027	     80.53141639	    -12.30621911	     11.51507816	     19.30705080	   -107.84112145	    137.67757298	     19.68614206	      1.81146247	    -14.66461864	      3.34249326
      1.66101695	     -0.85907148	     -8.01026450	     87.79120779	      0.26482083	      1.04337581	      0.30067817	      4.77674886	     -2.54757634	    -15.29729445	      8.59673081	      0.15004126	     17.76468539	     16.50150518	      0.00000000	      4.43826384	      2.95062671	      1.14972674	      4.33601451	      0.07567773	     13.39002626	    -16.84526347	      0.00000000	      0.09323809	     -0.65156671	      0.21475978	      0.17315246	     -0.86658373	      0.22818226	      0.15318086	     -1.58421931	      0.22818226	      0.10656181	     -1.58421931	      0.18791480	      0.08658089	     -1.32867484	      0.17449232	      0.05327624	     -1.00927684	      0.16106983	      0.66599036	     -7.37065298	      1.19442944	      0.00000000	      0.00000000	     12.68204866	      8.58517050	    -16.38026490	     79.10060650	   -102.50405232	    -89.69736969	      4.82928936	     79.45064242	    -12.26060766	     11.30996011	     19.63335639	   -107.94727431	    138.44284150	     20.06345123	      1.72053213	    -15.11394129	      3.06134282
      1.67796610	     -0.80730196	     -8.03915668	     87.78571074	      0.26480448	      1.04332328	      0.30077975	      4.80455579	     -2.46981479	    -15.14241225	      8.54551797	      0.14914742	     17.86549702	     16.64013323	      0.00000000	      4.47339434	      2.91285085	      1.20204784	      4.41872797	      0.07712135	     13.02773115	    -16.96113513	      0.00000000	      0.09403544	     -0.64253951	      0.21722643	      0.17463322	     -0.85457755	      0.23080308	      0.15449082	     -1.56227057	      0.23080308	      0.10747310	     -1.56227057	      0.19007313	      0.08732131	     -1.31026658	      0.17649647	      0.05373185	     -0.99529371	      0.16291982	      0.67168575	     -7.26853549	      1.20814823	      0.00000000	      0.00000000	     12.73158821	      8.52448445	    -16.30660780	     78.27542809	   -102.64098169	    -93.81758614	      4.69450463	     80.85406594	    -12.32702512	     11.09649293	     19.54837809	   -107.92726772	    138.79791424	     20.27364600	      1.66136225	    -15.23830001	      2.89888740
      1.69491525	     -0.75228041	     -8.03799224	     87.74187464	      0.26486045	      1.04331861	      0.30088824	      4.81397941	     -2.38701551	    -15.02783826	      8.48456741	      0.14808364	     17.99320973	     16.83109125	      0.00000000	      4.46883863	      2.85928851	      1.15093051	      4.49197139	      0.07839969	     12.63416214	    -17.04513929	      0.00000000	      0.09310445	     -0.63389448	      0.22120208	      0.17290428	     -0.84307965	      0.23502721	      0.15296131	     -1.54125103	      0.23502721	      0.10640908	     -1.54125103	      0.19355182	      0.08645680	     -1.29263762	      0.17972669	      0.05319989	     -0.98190254	      0.16590156	      0.66503581	     -7.17074110	      1.23025960	      0.00000000	      0.00000000	     12.71639477	      8.47266651	    -16.20383763	     77.88986376	   -102.63772502	    -95.86946738	      4.74854444	     81.33365650	    -12.46247594	     11.54742732	     19.62826412	   -107.91727504	    139.15643521	     20.36733683	      1.65651127	    -15.23901343	      2.87084359
      1.71186441	     -0.75843098	     -8.02328681	     87.65053610	      0.26508140	      1.04331828	      0.30101641	      4.82670175	     -2.35783058	    -14.78022370	      8.41933597	      0.14694513	     18.20120849	     16.84438749	      0.00000000	      4.43663187	      2.85869735	      1.05525432	      4.53759448	      0.07919596	     12.23106365	    -17.18533241	      0.00000000	      0.08988250	     -0.63594894	      0.24842495	      0.16692078	     -0.84581209	      0.26395151	      0.14766795	     -1.54624626	      0.26395151	      0.10272670	     -1.54624626	      0.21737183	      0.08346488	     -1.29682708	      0.20184527	      0.05135886	     -0.98508491	      0.18631871	      0.64202167	     -7.19398162	      1.38166504	      0.00000000	      0.00000000	     12.71451323	      8.45376734	    -16.30896514	     78.07937716	   -102.72657798	    -96.45163239	      4.77204384	     80.95762629	    -12.44330844	     12.27131790	     18.43578860	   -107.92370570	    138.88052891	     20.74794459	      1.60308668	    -15.15035588	      3.12188998
